<svg id="visual" viewBox="0 0 900 600" width="900" height="600" xmlns="http://www.w3.org/2000/svg" xmlns:xlink="http://www.w3.org/1999/xlink" version="1.1"><path d="M0 67L13.7 64C27.3 61 54.7 55 82 60C109.3 65 136.7 81 163.8 90C191 99 218 101 245.2 91C272.3 81 299.7 59 327 49C354.3 39 381.7 41 409 49C436.3 57 463.7 71 491 81C518.3 91 545.7 97 573 91C600.3 85 627.7 67 654.8 62C682 57 709 65 736.2 68C763.3 71 790.7 69 818 64C845.3 59 872.7 51 886.3 47L900 43L900 0L886.3 0C872.7 0 845.3 0 818 0C790.7 0 763.3 0 736.2 0C709 0 682 0 654.8 0C627.7 0 600.3 0 573 0C545.7 0 518.3 0 491 0C463.7 0 436.3 0 409 0C381.7 0 354.3 0 327 0C299.7 0 272.3 0 245.2 0C218 0 191 0 163.8 0C136.7 0 109.3 0 82 0C54.7 0 27.3 0 13.7 0L0 0Z" fill="#4b76ce"></path><path d="M0 289L13.7 296C27.3 303 54.7 317 82 308C109.3 299 136.7 267 163.8 253C191 239 218 243 245.2 236C272.3 229 299.7 211 327 215C354.3 219 381.7 245 409 258C436.3 271 463.7 271 491 261C518.3 251 545.7 231 573 232C600.3 233 627.7 255 654.8 249C682 243 709 209 736.2 190C763.3 171 790.7 167 818 176C845.3 185 872.7 207 886.3 218L900 229L900 41L886.3 45C872.7 49 845.3 57 818 62C790.7 67 763.3 69 736.2 66C709 63 682 55 654.8 60C627.7 65 600.3 83 573 89C545.7 95 518.3 89 491 79C463.7 69 436.3 55 409 47C381.7 39 354.3 37 327 47C299.7 57 272.3 79 245.2 89C218 99 191 97 163.8 88C136.7 79 109.3 63 82 58C54.7 53 27.3 59 13.7 62L0 65Z" fill="#3c60b0"></path><path d="M0 361L13.7 371C27.3 381 54.7 401 82 390C109.3 379 136.7 337 163.8 324C191 311 218 327 245.2 328C272.3 329 299.7 315 327 324C354.3 333 381.7 365 409 373C436.3 381 463.7 365 491 347C518.3 329 545.7 309 573 305C600.3 301 627.7 313 654.8 307C682 301 709 277 736.2 269C763.3 261 790.7 269 818 283C845.3 297 872.7 317 886.3 327L900 337L900 227L886.3 216C872.7 205 845.3 183 818 174C790.7 165 763.3 169 736.2 188C709 207 682 241 654.8 247C627.7 253 600.3 231 573 230C545.7 229 518.3 249 491 259C463.7 269 436.3 269 409 256C381.7 243 354.3 217 327 213C299.7 209 272.3 227 245.2 234C218 241 191 237 163.8 251C136.7 265 109.3 297 82 306C54.7 315 27.3 301 13.7 294L0 287Z" fill="#2d4b93"></path><path d="M0 547L13.7 546C27.3 545 54.7 543 82 526C109.3 509 136.7 477 163.8 474C191 471 218 497 245.2 498C272.3 499 299.7 475 327 472C354.3 469 381.7 487 409 499C436.3 511 463.7 517 491 511C518.3 505 545.7 487 573 481C600.3 475 627.7 481 654.8 492C682 503 709 519 736.2 520C763.3 521 790.7 507 818 497C845.3 487 872.7 481 886.3 478L900 475L900 335L886.3 325C872.7 315 845.3 295 818 281C790.7 267 763.3 259 736.2 267C709 275 682 299 654.8 305C627.7 311 600.3 299 573 303C545.7 307 518.3 327 491 345C463.7 363 436.3 379 409 371C381.7 363 354.3 331 327 322C299.7 313 272.3 327 245.2 326C218 325 191 309 163.8 322C136.7 335 109.3 377 82 388C54.7 399 27.3 379 13.7 369L0 359Z" fill="#1d3777"></path><path d="M0 601L13.7 601C27.3 601 54.7 601 82 601C109.3 601 136.7 601 163.8 601C191 601 218 601 245.2 601C272.3 601 299.7 601 327 601C354.3 601 381.7 601 409 601C436.3 601 463.7 601 491 601C518.3 601 545.7 601 573 601C600.3 601 627.7 601 654.8 601C682 601 709 601 736.2 601C763.3 601 790.7 601 818 601C845.3 601 872.7 601 886.3 601L900 601L900 473L886.3 476C872.7 479 845.3 485 818 495C790.7 505 763.3 519 736.2 518C709 517 682 501 654.8 490C627.7 479 600.3 473 573 479C545.7 485 518.3 503 491 509C463.7 515 436.3 509 409 497C381.7 485 354.3 467 327 470C299.7 473 272.3 497 245.2 496C218 495 191 469 163.8 472C136.7 475 109.3 507 82 524C54.7 541 27.3 543 13.7 544L0 545Z" fill="#0a245d"></path></svg>